PathFileType  4	(X/Y/Z) C:\Users\antoi\Documents\MyRepositories\mobilecap\ResultsAnalysis
DataRate	CameraRate	NumFrames	NumMarkers	Units	OrigDataRate	OrigDataStartFrame	OrigNumFrames
100.0	100.0	5	51	mm	100.0	35	138
Frame#	Time	r_knee			r_shank_antsup			r_ankle			r_calc			r_5meta			r_toe			L_knee			L_shank_antsup			L_ankle			L_calc			L_5meta			L_toe			r_sh2			r_sh3			r_sh4			L_sh2			L_sh3			r_thigh1			r_thigh2			r_thigh3			r_thigh4			r_thigh5			L_thigh1			L_thigh2			L_thigh3			L_thigh4			r.ASIS			r.PSIS			L.ASIS			L.PSIS			C7			R_Shoulder			L_Shoulder			R_Sternum			L_Sternum			R_humerus			R_elbow_med			R_elbow_lat			R_forearm			R_wrist_radius			R_wrist_ulna			L_humerus			L_elbow_med			L_elbow_lat			L_forearm			L_wrist_radius			L_wrist_ulna			R_HJC			L_HJC			R_HJC_reg			L_HJC_reg			
		X1	Y1	Z1	X2	Y2	Z2	X3	Y3	Z3	X4	Y4	Z4	X5	Y5	Z5	X6	Y6	Z6	X7	Y7	Z7	X8	Y8	Z8	X9	Y9	Z9	X10	Y10	Z10	X11	Y11	Z11	X12	Y12	Z12	X13	Y13	Z13	X14	Y14	Z14	X15	Y15	Z15	X16	Y16	Z16	X17	Y17	Z17	X18	Y18	Z18	X19	Y19	Z19	X20	Y20	Z20	X21	Y21	Z21	X22	Y22	Z22	X23	Y23	Z23	X24	Y24	Z24	X25	Y25	Z25	X26	Y26	Z26	X27	Y27	Z27	X28	Y28	Z28	X29	Y29	Z29	X30	Y30	Z30	X31	Y31	Z31	X32	Y32	Z32	X33	Y33	Z33	X34	Y34	Z34	X35	Y35	Z35	X36	Y36	Z36	X37	Y37	Z37	X38	Y38	Z38	X39	Y39	Z39	X40	Y40	Z40	X41	Y41	Z41	X42	Y42	Z42	X43	Y43	Z43	X44	Y44	Z44	X45	Y45	Z45	X46	Y46	Z46	X47	Y47	Z47	X48	Y48	Z48	X49	Y49	Z49	X50	Y50	Z50	X51	Y51	Z51	

35	0.34000000	215.22778	547.70241	-115.62766	236.37268	418.87988	-135.38509	111.23570	102.43537	-174.14987	47.85242	72.82287	-228.55558	233.82929	35.31976	-115.28637	280.63749	58.10494	-182.08770	399.95831	592.65163	-459.51608	413.58226	480.39574	-440.09728	185.41079	212.56049	-402.39450	122.42624	221.98506	-344.31610	272.03858	76.26274	-425.65295	315.19564	89.25516	-362.54889	228.11528	308.71238	-163.78953	171.19186	412.06092	-94.97873	167.39059	295.51866	-106.44450	334.24400	513.21674	-472.55725	301.23967	396.31476	-476.80372	330.81625	775.62135	-111.39769	324.88141	664.95586	-133.30489	288.80125	633.57938	-84.06093	240.54388	764.36730	-43.49011	239.02725	652.98960	-71.35957	370.69483	852.29496	-455.99790	441.40005	734.02432	-457.06310	278.26934	796.13613	-484.78405	350.35638	677.14771	-484.17386	297.78878	1056.39494	-106.24106	90.05043	1087.08769	-185.28074	293.70754	1053.80446	-369.94501	84.06189	1085.96759	-283.59440	159.57624	1586.14657	-225.96717	243.36226	1511.31942	-48.72834	219.78817	1543.63957	-410.18755	300.81185	1508.31549	-214.52534	295.81031	1507.05854	-261.38840	263.72766	1342.60578	18.60602	190.62501	1118.72712	-19.81712	218.97190	1141.20492	54.95777	332.40178	1007.86662	46.58966	380.98868	895.16525	46.55062	353.37723	880.87063	76.58023	187.68609	1377.93591	-506.35784	82.06326	1179.44057	-467.72627	108.21120	1196.16459	-543.63241	183.40740	1044.33200	-547.03146	188.54201	927.90394	-581.01247	154.23628	936.55673	-614.91105	215.92910	975.16685	-138.51293	214.19566	962.66812	-351.53076	227.91597	976.61210	-138.54856	217.33124	974.63160	-312.29002	
36	0.35000000	217.93455	547.99470	-115.82011	237.79947	419.32291	-135.35920	111.51247	103.00668	-174.44225	47.96531	73.51810	-228.81897	233.75286	35.27364	-115.29337	280.82054	58.09371	-182.01964	415.20341	594.16692	-457.36888	433.37819	482.28502	-438.99262	221.79273	200.48830	-401.64878	159.06973	205.15604	-342.97504	317.15953	70.55564	-426.93179	360.15528	86.08525	-364.26028	229.12016	309.14328	-163.67879	172.49041	412.85222	-95.20963	168.13561	296.31791	-106.57138	352.07264	510.74280	-470.09055	325.74628	392.22666	-475.36931	337.86377	774.10335	-111.98243	330.38291	663.57314	-133.88996	293.55667	632.77026	-84.68499	247.38706	764.29464	-43.80737	243.95552	652.86436	-71.80721	384.88487	854.53469	-453.78916	456.17261	736.42995	-454.93771	293.10531	797.65372	-484.37239	366.04562	679.17812	-483.03448	309.14692	1055.74861	-105.50081	101.67480	1087.47671	-185.33540	305.97556	1054.17706	-368.98950	95.93501	1086.45445	-283.69524	172.14640	1586.27055	-225.83511	256.57630	1511.96668	-48.81444	231.07138	1543.25365	-410.23112	313.30593	1508.53392	-214.93610	308.02838	1507.03300	-261.78522	278.07149	1343.73522	19.01839	206.25744	1119.13385	-17.93647	235.18977	1142.09125	56.39762	349.92646	1009.93374	47.07991	399.72703	897.77088	46.75774	372.48167	883.19918	76.97245	196.76171	1378.07046	-506.56219	89.39942	1180.53185	-467.82352	114.92272	1197.22971	-543.85828	189.65956	1045.19308	-548.74202	194.06593	928.87929	-583.09589	158.98288	937.34114	-616.08011	227.04258	974.92675	-138.34547	226.16660	963.14090	-351.40949	239.07911	976.79578	-138.01214	228.94667	974.99039	-311.62502	
37	0.36000000	220.74694	548.23996	-116.02700	239.24348	419.70550	-135.34561	111.75266	103.53188	-174.71454	48.07058	74.16422	-229.05226	233.71040	35.24091	-115.28745	280.99701	58.08371	-181.93381	429.34952	594.83175	-455.04199	452.23698	483.55419	-437.82340	258.91084	188.25383	-401.11383	196.82143	188.07768	-341.71626	362.70585	65.50180	-428.71257	405.44684	83.63435	-366.53859	230.11916	309.53006	-163.56689	173.80071	413.60715	-95.43671	168.88943	297.07797	-106.68665	369.15265	507.37940	-467.51006	349.85789	387.59910	-473.92763	344.89021	772.42889	-112.61032	336.10939	662.10500	-134.53987	298.32730	631.87826	-85.38580	254.28336	764.05194	-44.22364	248.73054	652.51880	-72.41982	398.61660	855.91987	-451.65619	470.26504	737.89729	-452.85694	307.28741	798.52366	-483.60289	380.76175	680.31560	-481.54163	320.53241	1054.83892	-104.87399	113.32815	1087.60276	-185.49520	318.13067	1054.15615	-368.21967	107.85001	1086.68843	-283.89656	184.74039	1586.11167	-225.79365	269.73330	1512.29659	-48.94243	242.46585	1542.55877	-410.33264	325.80700	1508.44852	-215.37241	320.20559	1506.68819	-262.20829	292.32306	1344.53261	19.35604	221.80088	1119.22506	-16.11211	251.28923	1142.67933	57.76962	367.33751	1011.73100	47.48085	418.35742	900.14390	46.86559	391.47619	885.29693	77.28083	206.10030	1377.84600	-506.71887	97.05469	1181.26836	-467.76118	121.87558	1197.96271	-543.94466	196.09748	1045.70159	-550.34625	199.84993	929.55832	-585.10127	163.97237	937.80025	-617.12079	238.15253	974.42973	-138.27496	238.05368	963.26261	-351.37468	250.20563	976.61295	-137.61823	240.54433	974.99987	-311.15572	
38	0.37000000	223.64037	548.41004	-116.23883	240.71218	420.00324	-135.34887	111.94568	103.99748	-174.97130	48.20889	74.70558	-229.26918	233.68747	35.21271	-115.26888	281.15105	58.07190	-181.83489	442.37216	594.58336	-452.50206	470.12610	484.21310	-436.51585	296.75631	176.08672	-400.83991	235.69621	171.00048	-340.59705	408.60162	61.34961	-431.01557	450.99123	82.17042	-369.41224	231.11894	309.85075	-163.45395	175.12320	414.30247	-95.66056	169.65322	297.77854	-106.79599	385.48837	503.12845	-464.82841	373.59185	382.48616	-472.47538	351.89967	770.57203	-113.24945	342.00034	660.53181	-135.23311	303.08479	630.87313	-86.15017	261.24095	763.61830	-44.71746	253.41425	651.97886	-73.15356	411.81111	856.35047	-449.66983	483.62214	738.35498	-450.77813	320.76432	798.66817	-482.48609	394.41911	680.45938	-479.64359	331.93634	1053.65853	-104.35248	125.03577	1087.44559	-185.75191	330.16103	1053.72209	-367.66434	119.82897	1086.64819	-284.18405	197.34807	1585.66789	-225.84459	282.84603	1512.31846	-49.12112	253.97190	1541.56702	-410.49576	338.32491	1508.05464	-215.83270	332.37420	1506.02933	-262.65697	306.50321	1345.00461	19.60697	237.26764	1119.00288	-14.36515	267.27084	1142.97588	59.06020	384.61569	1013.25955	47.79025	436.87425	902.28723	46.87394	410.33535	887.16481	77.50682	215.69341	1377.28292	-506.84346	105.08128	1181.63633	-467.52988	129.13655	1198.34906	-543.88687	202.78087	1045.84655	-551.81051	205.91371	929.91898	-586.99932	169.24437	937.94164	-618.02363	249.27173	973.66222	-138.29841	249.85628	963.01214	-351.42458	261.29765	976.03780	-137.36238	252.11893	974.63205	-310.90033	
39	0.38000000	226.60677	548.47041	-116.44903	242.23149	420.19116	-135.37230	112.08970	104.39346	-175.22490	48.40069	75.10712	-229.48559	233.66320	35.17850	-115.24020	281.27078	58.05633	-181.73132	454.26341	593.36822	-449.71768	487.01890	484.30766	-435.00154	335.29513	164.25203	-400.87414	275.68517	154.21813	-339.69929	454.73220	58.38041	-433.82186	496.64454	81.96566	-372.85444	232.14079	310.07730	-163.34572	176.47830	414.91258	-95.88849	170.43572	298.39802	-106.90917	401.09932	498.02255	-462.05708	396.97569	376.97404	-471.01199	358.89560	768.51353	-113.87314	347.93015	658.82490	-135.94377	307.81310	629.71691	-86.95495	268.24948	762.97892	-45.24503	258.06306	651.25971	-73.95860	424.40804	855.74692	-447.86024	496.17257	737.72183	-448.65675	333.51131	798.03651	-481.07695	406.94239	679.54551	-477.29499	343.36369	1052.20096	-103.93559	136.83363	1086.98679	-186.09296	342.10172	1052.86148	-367.31770	131.89163	1086.31089	-284.53873	209.96044	1584.93418	-225.98808	295.92294	1512.03731	-49.36141	265.58665	1540.29214	-410.72201	350.86664	1507.34766	-216.31671	344.58067	1505.06581	-263.13216	320.62449	1345.15942	19.76486	252.66062	1118.46896	-12.71318	283.13125	1142.98794	60.25578	401.74073	1014.51779	48.01206	455.26329	904.19674	46.78936	429.03418	888.79945	77.65180	225.53605	1376.40531	-506.94638	113.52318	1181.62857	-467.13456	136.77687	1198.37170	-543.69196	209.78239	1045.62486	-553.11082	212.28339	929.93795	-588.76344	174.84928	937.77287	-618.78430	260.42709	972.61144	-138.40393	261.60283	962.37312	-351.54847	272.39365	975.06655	-137.22803	263.68026	973.87528	-310.83640	
